<?xml version="1.0" encoding="utf-8"?>
<!-- Generator: Adobe Illustrator 15.0.1, SVG Export Plug-In . SVG Version: 6.00 Build 0)  -->
<!DOCTYPE svg PUBLIC "-//W3C//DTD SVG 1.1//EN" "http://www.w3.org/Graphics/SVG/1.1/DTD/svg11.dtd">
<svg version="1.1"
	 id="svg2" xmlns:dc="http://purl.org/dc/elements/1.1/" xmlns:rdf="http://www.w3.org/1999/02/22-rdf-syntax-ns#" xmlns:cc="http://creativecommons.org/ns#"
	 xmlns="http://www.w3.org/2000/svg" xmlns:xlink="http://www.w3.org/1999/xlink" x="0px" y="0px" width="256px" height="256px"
	 viewBox="0 0 256 256" enable-background="new 0 0 256 256" xml:space="preserve">
<path id="rect1942_1_" fill="#E9C800" d="M209.018,10.505H44.983c-19.599,0-35.487,15.888-35.487,35.487v164.015
	c0,19.599,15.888,35.486,35.487,35.486h164.033c19.604,0,35.487-15.888,37.487-34.819V46.66
	C244.504,26.394,228.615,10.505,209.018,10.505z"/>
<linearGradient id="SVGID_1_" gradientUnits="userSpaceOnUse" x1="2.8589" y1="1607.6123" x2="2.8589" y2="1735.2408" gradientTransform="matrix(1 0 0 1 125.1401 -1596.4453)">
	<stop  offset="0" style="stop-color:#FFFFFF;stop-opacity:0.85"/>
	<stop  offset="0.66" style="stop-color:#FFFFFF;stop-opacity:0"/>
</linearGradient>
<path fill="url(#SVGID_1_)" d="M209.018,10.505H44.983c-19.599,0-35.487,15.889-35.487,35.487v69.409
	c36.33,14.751,76.046,22.896,117.67,22.896c42.264,0,82.559-8.395,119.336-23.576V46.66
	C244.504,26.394,228.615,10.505,209.018,10.505z"/>
<path fill="none" stroke="#E9C800" stroke-width="2" stroke-miterlimit="10" d="M246.503,114.721V46.66
	c-1.999-20.266-17.888-36.155-37.485-36.155H44.982c-19.599,0-35.486,15.889-35.486,35.487v69.409"/>
<g>
	
		<path id="path2364" sodipodi:type="arc" sodipodi:cx="26.870058" sodipodi:cy="9.4626808" sodipodi:rx="7.4246211" sodipodi:ry="7.4246211" fill="#FFFFFF" d="
		M157.264,63.438c0,18.15-14.717,32.863-32.871,32.863S91.522,81.588,91.522,63.438s14.717-32.863,32.871-32.863
		S157.264,45.288,157.264,63.438z"/>
	<path id="path3239" sodipodi:nodetypes="cssccccccccsc" fill="#FFFFFF" d="M105.312,87.801c4.006,1.883,24.16-2.059,26.225-0.286
		c2.096,1.798-5.067,8.584-1.043,11.582c9.553,7.117,34.82,9.205,57.498,0.837l8.594,23.625
		c-12.461,6.872-31.113,10.854-54.996,8.59l62.73,63.146l-23.246,20.913l-48.256-50.675c-19.522,34.198-45.049,47.599-65.13,59.831
		L50.814,198.75c79.656-50.287,35.51-72.796,54.821-101.526C107.18,94.927,102.692,90.012,105.312,87.801z"/>
</g>
<g>
	
		<linearGradient id="SVGID_2_" gradientUnits="userSpaceOnUse" x1="2.8599" y1="1734.4463" x2="2.8599" y2="1841.9575" gradientTransform="matrix(1 0 0 1 125.1401 -1596.4453)">
		<stop  offset="0" style="stop-color:#000000;stop-opacity:0.15"/>
		<stop  offset="0.6626" style="stop-color:#000000;stop-opacity:0"/>
	</linearGradient>
	<path fill="url(#SVGID_2_)" d="M9.496,115.401v94.605c0,19.6,15.888,35.486,35.487,35.486h164.033
		c19.604,0,35.488-15.889,37.488-34.819v-95.952c-36.779,15.181-77.074,23.576-119.337,23.576
		C85.542,138.298,45.825,130.152,9.496,115.401z"/>
</g>
<g>
	<g>
		<g>
			<g>
				<path fill="none" stroke="#C4A900" stroke-width="2" stroke-miterlimit="10" d="M9.496,115.401v94.605
					c0,19.6,15.888,35.486,35.486,35.486h164.034c19.604,0,35.487-15.889,37.487-34.819v-95.952"/>
			</g>
		</g>
	</g>
</g>
</svg>
