<?xml version="1.0" encoding="utf-8"?>
<!-- Generator: Adobe Illustrator 15.0.0, SVG Export Plug-In . SVG Version: 6.00 Build 0)  -->
<!DOCTYPE svg PUBLIC "-//W3C//DTD SVG 1.1//EN" "http://www.w3.org/Graphics/SVG/1.1/DTD/svg11.dtd">
<svg version="1.1"
	 id="svg2" sodipodi:version="0.32" inkscape:version="0.47 r22583" inkscape:output_extension="org.inkscape.output.svg.inkscape" xmlns:inkscape="http://www.inkscape.org/namespaces/inkscape" xmlns:sodipodi="http://sodipodi.sourceforge.net/DTD/sodipodi-0.dtd" xmlns:svg="http://www.w3.org/2000/svg" xmlns:rdf="http://www.w3.org/1999/02/22-rdf-syntax-ns#" xmlns:cc="http://creativecommons.org/ns#" xmlns:dc="http://purl.org/dc/elements/1.1/" sodipodi:docname="youtube.svg"
	 xmlns="http://www.w3.org/2000/svg" xmlns:xlink="http://www.w3.org/1999/xlink" x="0px" y="0px" width="256px" height="256px"
	 viewBox="0 0 256 256" enable-background="new 0 0 256 256" xml:space="preserve">
<path id="rect1942" inkscape:export-xdpi="7.7063322" inkscape:export-ydpi="7.7063322" inkscape:export-filename="C:\Documents and Settings\Molumen\Desktop\path3511111.png" fill="#4E83B7" d="
	M210.018,10.505H45.983c-19.599,0-35.487,15.888-35.487,35.487v164.015c0,19.599,15.888,35.486,35.487,35.486h164.033
	c19.604,0,35.487-15.888,37.487-34.819V46.66C245.504,26.394,229.615,10.505,210.018,10.505z"/>
<linearGradient id="SVGID_1_" gradientUnits="userSpaceOnUse" x1="94.9995" y1="1181.167" x2="94.9995" y2="1308.795" gradientTransform="matrix(1 0 0 1 34 -1170)">
	<stop  offset="0" style="stop-color:#FFFFFF;stop-opacity:0.85"/>
	<stop  offset="0.66" style="stop-color:#FFFFFF;stop-opacity:0"/>
</linearGradient>
<path fill="url(#SVGID_1_)" d="M210.018,10.505H45.983c-19.599,0-35.487,15.889-35.487,35.487v69.409
	c36.33,14.751,76.046,22.896,117.671,22.896c42.263,0,82.558-8.395,119.336-23.576V46.66
	C245.504,26.394,229.615,10.505,210.018,10.505z"/>
<g id="layer1" transform="translate(-373.642,-318.344)" inkscape:groupmode="layer" inkscape:label="Layer 1">
	<path id="path4533" sodipodi:nodetypes="ccccccc" fill="#FFFFFF" d="M443.356,419.415l-24.16-0.083l-0.126,56.869h40.714
		l0.148-81.533l-16.429-0.126L443.356,419.415z"/>
	<path id="path4535" sodipodi:nodetypes="ccccc" fill="#4E83B7" d="M435.142,435.509v24.265h8.571v-24.287L435.142,435.509z"/>
	<path id="path4537" sodipodi:nodetypes="ccccc" fill="#FFFFFF" d="M467.285,418.701l16.407-0.021l0.021,57.165h-16.071
		L467.285,418.701z"/>
	<path id="path4539" sodipodi:nodetypes="ccccc" fill="#FFFFFF" d="M467.39,394.646l-0.104,16.555h16.786l-0.252-16.533
		L467.39,394.646z"/>
	<path id="path4541" sodipodi:nodetypes="ccccccccc" fill="#FFFFFF" d="M491.213,418.701l0.083,57.374l24.895,0.127l0.146,7.857
		l-24.895,0.273l-0.231,15.797h41.429v-81.428H491.213z"/>
	<path id="path4543" sodipodi:nodetypes="ccccc" fill="#4E83B7" d="M507.642,435.13l-0.021,23.929l8.192-0.021l0.044-23.907H507.642
		z"/>
	<path id="path4545" sodipodi:nodetypes="ccccccccc" fill="#FFFFFF" d="M541.212,418.344l0.084,57.374l24.896,0.126l0.147,7.857
		l-24.896,0.272l-0.231,15.798h41.43v-81.429L541.212,418.344L541.212,418.344z"/>
	<path id="path4547" sodipodi:nodetypes="ccccc" fill="#4E83B7" d="M557.642,434.773l-0.021,23.928l8.192-0.021l0.044-23.907
		L557.642,434.773L557.642,434.773z"/>
</g>
<g>
	
		<linearGradient id="SVGID_2_" gradientUnits="userSpaceOnUse" x1="94.9995" y1="1308.001" x2="94.9995" y2="1415.5118" gradientTransform="matrix(1 0 0 1 34 -1170)">
		<stop  offset="0" style="stop-color:#000000;stop-opacity:0.15"/>
		<stop  offset="0.6626" style="stop-color:#000000;stop-opacity:0"/>
	</linearGradient>
	<path fill="url(#SVGID_2_)" d="M10.496,115.401v94.605c0,19.6,15.888,35.486,35.487,35.486h164.033
		c19.604,0,35.488-15.889,37.488-34.819v-95.952c-36.779,15.181-77.074,23.576-119.337,23.576
		C86.542,138.298,46.825,130.152,10.496,115.401z"/>
</g>
<path fill="none" stroke="#297499" stroke-width="2" stroke-miterlimit="10" d="M247.503,114.721V46.66
	c-1.999-20.266-17.888-36.155-37.485-36.155H45.982c-19.599,0-35.486,15.889-35.486,35.487v69.409"/>
<g>
	<g>
		<g>
			<path fill="none" stroke="#215D7A" stroke-width="2" stroke-miterlimit="10" d="M10.496,115.401v94.605
				c0,19.6,15.888,35.486,35.486,35.486h164.034c19.604,0,35.487-15.889,37.487-34.819v-95.952"/>
		</g>
	</g>
</g>
</svg>
