<?xml version="1.0" encoding="utf-8"?>
<!-- Generator: Adobe Illustrator 15.0.0, SVG Export Plug-In . SVG Version: 6.00 Build 0)  -->
<!DOCTYPE svg PUBLIC "-//W3C//DTD SVG 1.1//EN" "http://www.w3.org/Graphics/SVG/1.1/DTD/svg11.dtd">
<svg version="1.1"
	 id="svg2" sodipodi:version="0.32" inkscape:version="0.47 r22583" inkscape:output_extension="org.inkscape.output.svg.inkscape" xmlns:inkscape="http://www.inkscape.org/namespaces/inkscape" xmlns:sodipodi="http://sodipodi.sourceforge.net/DTD/sodipodi-0.dtd" xmlns:svg="http://www.w3.org/2000/svg" xmlns:rdf="http://www.w3.org/1999/02/22-rdf-syntax-ns#" xmlns:cc="http://creativecommons.org/ns#" xmlns:dc="http://purl.org/dc/elements/1.1/" sodipodi:docname="youtube.svg"
	 xmlns="http://www.w3.org/2000/svg" xmlns:xlink="http://www.w3.org/1999/xlink" x="0px" y="0px" width="256px" height="256px"
	 viewBox="0 0 256 256" enable-background="new 0 0 256 256" xml:space="preserve">
<path id="rect1942" inkscape:export-xdpi="7.7063322" inkscape:export-ydpi="7.7063322" inkscape:export-filename="C:\Documents and Settings\Molumen\Desktop\path3511111.png" fill="#F7A035" d="
	M210.018,10.505H45.983c-19.599,0-35.487,15.888-35.487,35.487v164.015c0,19.599,15.888,35.486,35.487,35.486h164.033
	c19.604,0,35.487-15.888,37.487-34.819V46.66C245.504,26.394,229.615,10.505,210.018,10.505z"/>
<linearGradient id="SVGID_1_" gradientUnits="userSpaceOnUse" x1="86.4995" y1="-949.167" x2="86.4995" y2="-1076.7955" gradientTransform="matrix(1 0 0 -1 42.5 -938)">
	<stop  offset="0" style="stop-color:#FFFFFF;stop-opacity:0.85"/>
	<stop  offset="0.66" style="stop-color:#FFFFFF;stop-opacity:0"/>
</linearGradient>
<path fill="url(#SVGID_1_)" d="M210.018,10.505H45.983c-19.599,0-35.487,15.889-35.487,35.487v69.409
	c36.33,14.751,76.046,22.896,117.671,22.896c42.263,0,82.558-8.395,119.336-23.576V46.66
	C245.504,26.394,229.615,10.505,210.018,10.505z"/>
<g id="_x37_935ec95c421cee6d86eb22ecd121ad0">
	<path fill="#FFFFFF" d="M201.173,184.922c2.062-5.734-3.864-12.162-7.616-12.98c-2.428-0.523-4.998,0.83-6.773-0.273
		c-2.125-1.334-1.508-7.919-1.694-12.141c-1.21-27.618-1.812-53.881-3.103-80.991c-0.236-5.034-0.467-9.433,1.412-12.135
		c2.59-3.729,8.574-4.19,12.135-7.621c0.469-2.951-1.133-5.557-2.26-8.181c-2.592-6.041-4.688-7.838-13.262-7.334
		c-6.41,0.368-15.188,1.825-22.576,3.945c-5.393,1.547-15.431,4.592-16.646,8.75c-0.615,2.083-0.062,4.633,0.561,6.209
		c1.112,2.795,5.281,6.184,9.313,7.621c2.341,0.834,6.925,0.573,8.464,1.972c1.805,1.642,1.312,7.862,1.412,12.135
		c0.258,10.559,0.648,16.174,1.129,26.25c0.2,4.187,1.09,10.19-0.562,12.135c-1.121,1.312-4.305,1.281-7.621,1.69
		c-14.725,1.809-27.301,4.204-39.507,7.336c-5.028,1.293-10.099,2.656-15.521,2.822c-2.624-2.613-2.475-7.292-2.54-11.573
		c-0.211-13.821-0.788-29.287-0.283-42.326c4.046-2.971,12.667-2.988,14.677-7.342c2.31-5.022-1.701-9.937-4.234-11.853
		c-2.525-1.911-6.291-3.826-9.595-3.949c-3.81-0.139-8.702,1.092-12.7,1.973c-3.908,0.859-7.919,1.903-11.854,2.819
		c-7.483,1.764-18.732,3.847-19.471,10.163c-0.52,4.445,3.102,8.406,6.21,10.166c3.426,1.927,7.748,2,11.57,3.102
		c1.85,3.913,1.238,8.382,1.41,12.695c0.557,13.989,1.517,27.244,2.54,40.357c1.058,13.537,1.551,27.248,3.104,39.505
		c0.542,4.268,1.672,8.487,1.129,12.7c-4.015,2.709-13.333,3.416-13.546,9.313c-0.137,3.87,5.708,8.706,8.467,9.879
		c5.202,2.205,10.893,0.414,16.931-0.567c3.818-0.625,7.742-1.129,11.29-1.974c6.125-1.456,15.881-4.814,16.367-10.438
		c0.446-5.175-5.561-9.324-9.031-10.162c-3.475-0.841-7.219,0.567-9.032-1.412c-2.009-2.194-1.306-10.194-1.41-13.543
		c-0.144-4.576-1.132-11.083,0.562-13.828c1.856-3.009,8.846-4.576,13.266-5.933c5.263-1.616,9.831-3.307,15.239-4.229
		c11.264-1.937,21.369-4.97,34.427-3.95c0.393,5.668,0.393,11.396,0.852,16.933c0.44,5.396,2.276,10.737,0.562,15.521
		c-4.079,2.146-14.198,2.345-14.676,7.621c-0.242,2.718,3.022,5.882,4.799,7.621c2.302,2.248,4.781,4.158,7.9,4.791
		c3.34,0.688,8.521-0.188,12.139-0.844c7.906-1.437,12.703-3.353,19.468-5.931C196.557,188.086,200.32,187.328,201.173,184.922z"/>
</g>
<g>
	
		<linearGradient id="SVGID_2_" gradientUnits="userSpaceOnUse" x1="86.5" y1="-1076.001" x2="86.5" y2="-1183.5122" gradientTransform="matrix(1 0 0 -1 42.5 -938)">
		<stop  offset="0" style="stop-color:#000000;stop-opacity:0.15"/>
		<stop  offset="0.6626" style="stop-color:#000000;stop-opacity:0"/>
	</linearGradient>
	<path fill="url(#SVGID_2_)" d="M10.496,115.401v94.605c0,19.6,15.888,35.486,35.487,35.486h164.033
		c19.604,0,35.488-15.889,37.488-34.819v-95.952c-36.779,15.181-77.074,23.576-119.337,23.576
		C86.542,138.298,46.825,130.152,10.496,115.401z"/>
</g>
<path fill="none" stroke="#FF9933" stroke-width="2" stroke-miterlimit="10" d="M247.503,114.721V46.66
	c-1.999-20.266-17.888-36.155-37.485-36.155H45.982c-19.599,0-35.486,15.889-35.486,35.487v69.409"/>
<g>
	<g>
		<g>
			<path fill="none" stroke="#CC7A29" stroke-width="2" stroke-miterlimit="10" d="M10.496,115.401v94.605
				c0,19.6,15.888,35.486,35.486,35.486h164.034c19.604,0,35.487-15.889,37.487-34.819v-95.952"/>
		</g>
	</g>
</g>
</svg>
