<?xml version="1.0" encoding="utf-8"?>
<!-- Generator: Adobe Illustrator 15.0.0, SVG Export Plug-In . SVG Version: 6.00 Build 0)  -->
<!DOCTYPE svg PUBLIC "-//W3C//DTD SVG 1.1//EN" "http://www.w3.org/Graphics/SVG/1.1/DTD/svg11.dtd">
<svg version="1.1"
	 id="svg2" xmlns:rdf="http://www.w3.org/1999/02/22-rdf-syntax-ns#" xmlns:cc="http://creativecommons.org/ns#" xmlns:dc="http://purl.org/dc/elements/1.1/"
	 xmlns="http://www.w3.org/2000/svg" xmlns:xlink="http://www.w3.org/1999/xlink" x="0px" y="0px" width="256px" height="256px"
	 viewBox="0 0 256 256" enable-background="new 0 0 256 256" xml:space="preserve">
<path id="rect1942_1_" fill="#F2756A" d="M209.018,10.505H44.983c-19.599,0-35.487,15.888-35.487,35.487v164.015
	c0,19.599,15.888,35.486,35.487,35.486h164.033c19.604,0,35.487-15.888,37.487-34.819V46.66
	C244.504,26.394,228.615,10.505,209.018,10.505z"/>
<linearGradient id="SVGID_1_" gradientUnits="userSpaceOnUse" x1="93.8599" y1="-926.1123" x2="93.8599" y2="-1053.7408" gradientTransform="matrix(1 0 0 -1 34.1401 -914.9453)">
	<stop  offset="0" style="stop-color:#FFFFFF;stop-opacity:0.85"/>
	<stop  offset="0.66" style="stop-color:#FFFFFF;stop-opacity:0"/>
</linearGradient>
<path fill="url(#SVGID_1_)" d="M209.018,10.505H44.983c-19.599,0-35.487,15.889-35.487,35.487v69.409
	c36.33,14.751,76.046,22.896,117.67,22.896c42.263,0,82.558-8.395,119.336-23.576V46.66
	C244.504,26.394,228.615,10.505,209.018,10.505z"/>
<path fill="none" stroke="#F2756A" stroke-width="2" stroke-miterlimit="10" d="M246.503,114.721V46.66
	c-1.999-20.266-17.888-36.155-37.485-36.155H44.982c-19.599,0-35.486,15.889-35.486,35.487v69.409"/>
<path fill="#FFFFFF" d="M125.256,245.084h4.833c5.488-31.715,20.821-72.823,41.499-100.416
	c13.537-18.06,19.768-35.665,19.768-46.347c0-37.103-28.514-67.179-63.682-67.179h-0.002c-35.171,0-63.684,30.076-63.684,67.179
	c0,10.683,6.229,28.287,19.768,46.347C104.435,172.261,119.768,213.369,125.256,245.084z M127.346,67.685
	c14.916,0,27.007,12.605,27.007,28.156c0,15.55-12.092,28.155-27.007,28.155c-14.916,0-27.008-12.605-27.008-28.155
	C100.338,80.291,112.43,67.685,127.346,67.685z"/>
<g>
	
		<linearGradient id="SVGID_2_" gradientUnits="userSpaceOnUse" x1="93.8599" y1="-1052.9463" x2="93.8599" y2="-1160.4575" gradientTransform="matrix(1 0 0 -1 34.1401 -914.9453)">
		<stop  offset="0" style="stop-color:#000000;stop-opacity:0.15"/>
		<stop  offset="0.6626" style="stop-color:#000000;stop-opacity:0"/>
	</linearGradient>
	<path fill="url(#SVGID_2_)" d="M9.496,115.401v94.605c0,19.6,15.888,35.486,35.487,35.486h164.033
		c19.604,0,35.488-15.889,37.488-34.819v-95.952c-36.779,15.181-77.074,23.576-119.337,23.576
		C85.542,138.298,45.825,130.152,9.496,115.401z"/>
</g>
<g>
	<g>
		<g>
			<g>
				<path fill="none" stroke="#CC6359" stroke-width="2" stroke-miterlimit="10" d="M9.496,115.401v94.605
					c0,19.6,15.888,35.486,35.486,35.486h164.034c19.604,0,35.487-15.889,37.487-34.819v-95.952"/>
			</g>
		</g>
	</g>
</g>
</svg>
