<?xml version="1.0" encoding="utf-8"?>
<!-- Generator: Adobe Illustrator 15.0.0, SVG Export Plug-In . SVG Version: 6.00 Build 0)  -->
<!DOCTYPE svg PUBLIC "-//W3C//DTD SVG 1.1//EN" "http://www.w3.org/Graphics/SVG/1.1/DTD/svg11.dtd">
<svg version="1.1"
	 id="svg2" sodipodi:version="0.32" inkscape:version="0.47 r22583" inkscape:output_extension="org.inkscape.output.svg.inkscape" xmlns:inkscape="http://www.inkscape.org/namespaces/inkscape" xmlns:sodipodi="http://sodipodi.sourceforge.net/DTD/sodipodi-0.dtd" xmlns:svg="http://www.w3.org/2000/svg" xmlns:rdf="http://www.w3.org/1999/02/22-rdf-syntax-ns#" xmlns:cc="http://creativecommons.org/ns#" xmlns:dc="http://purl.org/dc/elements/1.1/" sodipodi:docname="youtube.svg"
	 xmlns="http://www.w3.org/2000/svg" xmlns:xlink="http://www.w3.org/1999/xlink" x="0px" y="0px" width="256px" height="256px"
	 viewBox="0 0 256 256" enable-background="new 0 0 256 256" xml:space="preserve">
<path id="rect1942" fill="#E6E6E6" d="M209.018,10.505H44.983c-19.599,0-35.487,15.888-35.487,35.487v164.015
	c0,19.599,15.888,35.486,35.487,35.486h164.033c19.604,0,35.487-15.888,37.487-34.819V46.66
	C244.504,26.394,228.615,10.505,209.018,10.505z"/>
<g id="layer1" transform="translate(-373.642,-318.344)" inkscape:groupmode="layer" inkscape:label="Layer 1">
	<g id="g3792" transform="matrix(0.92854554,0,0,0.92854554,-44.213704,25.642797)">
		<path id="path2986" sodipodi:nodetypes="cccc" fill="#0033A1" d="M532.407,454.241l-32.83,31.818
			c12.855,29.265,23.113,37.761,33.335,45.962L532.407,454.241z"/>
		<path id="path2988" sodipodi:nodetypes="cccc" fill="#00A101" d="M549.579,494.14l116.672,0.505
			c-19.998,35.72-46.66,64.43-117.177,46.974L549.579,494.14z"/>
		<path id="path2990" sodipodi:nodetypes="cccc" fill="#FF8901" d="M671.301,481.513l-27.779,1.01l-0.505-108.59
			C667.652,399.475,684.099,430.573,671.301,481.513z"/>
		<path id="path2992" sodipodi:nodetypes="cccc" fill="#FF2301" d="M630.392,423.43l-1.012-58.589
			c-30.18-17.762-51.262-12.604-72.225-8.081L630.392,423.43z"/>
		<path id="path2994" sodipodi:nodetypes="cccc" fill="#9000A1" d="M542.003,363.326l34.851,32.83l-80.812,74.246
			C494.799,434.71,490.929,399.018,542.003,363.326z"/>
	</g>
</g>
<g>
	
		<linearGradient id="SVGID_1_" gradientUnits="userSpaceOnUse" x1="93.9995" y1="1308.001" x2="93.9995" y2="1415.5118" gradientTransform="matrix(1 0 0 1 34 -1170)">
		<stop  offset="0" style="stop-color:#000000;stop-opacity:0.15"/>
		<stop  offset="0.6626" style="stop-color:#000000;stop-opacity:0"/>
	</linearGradient>
	<path fill="url(#SVGID_1_)" d="M9.496,115.401v94.605c0,19.6,15.888,35.486,35.487,35.486h164.033
		c19.604,0,35.488-15.889,37.488-34.819v-95.952c-36.779,15.181-77.074,23.576-119.337,23.576
		C85.542,138.298,45.825,130.152,9.496,115.401z"/>
</g>
<linearGradient id="SVGID_2_" gradientUnits="userSpaceOnUse" x1="93.9995" y1="1181.167" x2="93.9995" y2="1308.795" gradientTransform="matrix(1 0 0 1 34 -1170)">
	<stop  offset="0" style="stop-color:#FFFFFF;stop-opacity:0.85"/>
	<stop  offset="0.66" style="stop-color:#FFFFFF;stop-opacity:0"/>
</linearGradient>
<path fill="url(#SVGID_2_)" d="M209.018,10.505H44.983c-19.599,0-35.487,15.889-35.487,35.487v69.409
	c36.33,14.751,76.046,22.896,117.671,22.896c42.263,0,82.558-8.395,119.336-23.576V46.66
	C244.504,26.394,228.615,10.505,209.018,10.505z"/>
<path fill="none" stroke="#E6E6E6" stroke-width="2" stroke-miterlimit="10" d="M246.503,114.721V46.66
	c-1.999-20.266-17.888-36.155-37.485-36.155H44.982c-19.599,0-35.486,15.889-35.486,35.487v69.409"/>
<g>
	<g>
		<g>
			<path fill="none" stroke="#B8B8B8" stroke-width="2" stroke-miterlimit="10" d="M9.496,115.401v94.605
				c0,19.6,15.888,35.486,35.486,35.486h164.034c19.604,0,35.487-15.889,37.487-34.819v-95.952"/>
		</g>
	</g>
</g>
</svg>
