<?xml version="1.0" encoding="utf-8"?>
<!-- Generator: Adobe Illustrator 15.0.0, SVG Export Plug-In . SVG Version: 6.00 Build 0)  -->
<!DOCTYPE svg PUBLIC "-//W3C//DTD SVG 1.1//EN" "http://www.w3.org/Graphics/SVG/1.1/DTD/svg11.dtd">
<svg version="1.1"
	 id="svg2" sodipodi:version="0.32" inkscape:version="0.47 r22583" inkscape:output_extension="org.inkscape.output.svg.inkscape" xmlns:inkscape="http://www.inkscape.org/namespaces/inkscape" xmlns:sodipodi="http://sodipodi.sourceforge.net/DTD/sodipodi-0.dtd" xmlns:svg="http://www.w3.org/2000/svg" xmlns:rdf="http://www.w3.org/1999/02/22-rdf-syntax-ns#" xmlns:cc="http://creativecommons.org/ns#" xmlns:dc="http://purl.org/dc/elements/1.1/" sodipodi:docname="sharethis.svg"
	 xmlns="http://www.w3.org/2000/svg" xmlns:xlink="http://www.w3.org/1999/xlink" x="0px" y="0px" width="256px" height="256px"
	 viewBox="0 0 256 256" enable-background="new 0 0 256 256" xml:space="preserve">
<path id="rect1942_1_" inkscape:export-xdpi="7.7063322" inkscape:export-ydpi="7.7063322" inkscape:export-filename="C:\Documents and Settings\Molumen\Desktop\path3511111.png" fill="#1C6F00" d="
	M209.018,10.505H44.983c-19.599,0-35.487,15.888-35.487,35.487v164.015c0,19.599,15.888,35.486,35.487,35.486h164.033
	c19.604,0,35.487-15.888,37.487-34.819V46.66C244.504,26.394,228.615,10.505,209.018,10.505z"/>
<linearGradient id="SVGID_1_" gradientUnits="userSpaceOnUse" x1="93.9995" y1="1181.167" x2="93.9995" y2="1308.795" gradientTransform="matrix(1 0 0 1 34 -1170)">
	<stop  offset="0" style="stop-color:#FFFFFF;stop-opacity:0.85"/>
	<stop  offset="0.66" style="stop-color:#FFFFFF;stop-opacity:0"/>
</linearGradient>
<path fill="url(#SVGID_1_)" d="M209.018,10.505H44.983c-19.599,0-35.487,15.889-35.487,35.487v69.409
	c36.33,14.751,76.046,22.896,117.671,22.896c42.263,0,82.558-8.395,119.336-23.576V46.66
	C244.504,26.394,228.615,10.505,209.018,10.505z"/>
<g id="layer1" transform="translate(-373.642,-318.344)" inkscape:groupmode="layer" inkscape:label="Layer 1">
	
		<path id="path15787" sodipodi:cy="101.95174" sodipodi:type="arc" sodipodi:cx="349.51279" sodipodi:rx="12.121831" sodipodi:ry="13.637059" fill="#FFFFFF" d="
		M472.3,446.054c0,18.411-13.266,33.335-29.631,33.335c-16.365,0-29.631-14.925-29.631-33.335s13.266-33.335,29.631-33.335
		C459.034,412.719,472.3,427.644,472.3,446.054z"/>
	
		<path id="path15787-7" sodipodi:cy="101.95174" sodipodi:type="arc" sodipodi:cx="349.51279" sodipodi:rx="12.121831" sodipodi:ry="13.637059" fill="#FFFFFF" d="
		M580.05,392.516c0,18.411-13.268,33.335-29.631,33.335c-16.365,0-29.633-14.925-29.633-33.335s13.268-33.335,29.633-33.335
		S580.05,374.106,580.05,392.516z"/>
	
		<path id="path15787-1" sodipodi:cy="101.95174" sodipodi:type="arc" sodipodi:cx="349.51279" sodipodi:rx="12.121831" sodipodi:ry="13.637059" fill="#FFFFFF" d="
		M580.05,502.623c0,18.41-13.268,33.335-29.631,33.335c-16.365,0-29.633-14.925-29.633-33.335s13.268-33.336,29.633-33.336
		S580.05,484.213,580.05,502.623z"/>
	<path id="path16330" fill="none" stroke="#FFFFFF" stroke-width="25" d="M451.424,450.095l96.974,54.548"/>
	<path id="path16332" fill="none" stroke="#FFFFFF" stroke-width="25" d="M453.444,442.014l86.874-47.477"/>
</g>
<g>
	
		<linearGradient id="SVGID_2_" gradientUnits="userSpaceOnUse" x1="93.9995" y1="1308.001" x2="93.9995" y2="1415.5118" gradientTransform="matrix(1 0 0 1 34 -1170)">
		<stop  offset="0" style="stop-color:#000000;stop-opacity:0.15"/>
		<stop  offset="0.6626" style="stop-color:#000000;stop-opacity:0"/>
	</linearGradient>
	<path fill="url(#SVGID_2_)" d="M9.496,115.401v94.605c0,19.6,15.888,35.486,35.487,35.486h164.033
		c19.604,0,35.488-15.889,37.488-34.819v-95.952c-36.779,15.181-77.074,23.576-119.337,23.576
		C85.542,138.298,45.825,130.152,9.496,115.401z"/>
</g>
<path fill="none" stroke="#1C6F00" stroke-width="2" stroke-miterlimit="10" d="M246.503,114.721V46.66
	c-1.999-20.266-17.888-36.155-37.485-36.155H44.982c-19.599,0-35.486,15.889-35.486,35.487v69.409"/>
<g>
	<g>
		<g>
			<path fill="none" stroke="#175900" stroke-width="2" stroke-miterlimit="10" d="M9.496,115.401v94.605
				c0,19.6,15.888,35.486,35.486,35.486h164.034c19.604,0,35.487-15.889,37.487-34.819v-95.952"/>
		</g>
	</g>
</g>
</svg>
