<?xml version="1.0" encoding="utf-8"?>
<!-- Generator: Adobe Illustrator 15.0.0, SVG Export Plug-In . SVG Version: 6.00 Build 0)  -->
<!DOCTYPE svg PUBLIC "-//W3C//DTD SVG 1.1//EN" "http://www.w3.org/Graphics/SVG/1.1/DTD/svg11.dtd">
<svg version="1.1"
	 id="svg2" sodipodi:version="0.32" inkscape:version="0.47 r22583" inkscape:output_extension="org.inkscape.output.svg.inkscape" xmlns:inkscape="http://www.inkscape.org/namespaces/inkscape" xmlns:sodipodi="http://sodipodi.sourceforge.net/DTD/sodipodi-0.dtd" xmlns:svg="http://www.w3.org/2000/svg" xmlns:rdf="http://www.w3.org/1999/02/22-rdf-syntax-ns#" xmlns:cc="http://creativecommons.org/ns#" xmlns:dc="http://purl.org/dc/elements/1.1/" sodipodi:docname="youtube.svg"
	 xmlns="http://www.w3.org/2000/svg" xmlns:xlink="http://www.w3.org/1999/xlink" x="0px" y="0px" width="256px" height="256px"
	 viewBox="0 0 256 256" enable-background="new 0 0 256 256" xml:space="preserve">
<path id="rect1942" inkscape:export-xdpi="7.7063322" inkscape:export-ydpi="7.7063322" inkscape:export-filename="C:\Documents and Settings\Molumen\Desktop\path3511111.png" fill="#7BC10F" d="
	M210.018,10.505H45.983c-19.599,0-35.487,15.888-35.487,35.487v164.015c0,19.599,15.888,35.486,35.487,35.486h164.033
	c19.604,0,35.487-15.888,37.487-34.819V46.66C245.504,26.394,229.615,10.505,210.018,10.505z"/>
<linearGradient id="SVGID_1_" gradientUnits="userSpaceOnUse" x1="94.9995" y1="1181.167" x2="94.9995" y2="1308.795" gradientTransform="matrix(1 0 0 1 34 -1170)">
	<stop  offset="0" style="stop-color:#FFFFFF;stop-opacity:0.85"/>
	<stop  offset="0.66" style="stop-color:#FFFFFF;stop-opacity:0"/>
</linearGradient>
<path fill="url(#SVGID_1_)" d="M210.018,10.505H45.983c-19.599,0-35.487,15.889-35.487,35.487v69.409
	c36.33,14.751,76.046,22.896,117.671,22.896c42.263,0,82.558-8.395,119.336-23.576V46.66
	C245.504,26.394,229.615,10.505,210.018,10.505z"/>
<path id="Spotify" fill="#FFFFFF" d="M192.518,169.204c-2.406,4.31-5.985,4.845-9.871,2.437
	c-16.984-10.555-36.373-17.537-57.326-19.832c-21.514-2.354-42.388,0.496-61.521,7.521c-2.052,0.757-6.385,0.712-7.731-5.281
	c-1.347-6.003,2.035-8.938,3.877-9.597c20.86-7.503,43.539-10.574,66.925-8.017c22.979,2.516,44.631,9.48,62.859,21.703
	C192.604,160.066,194.921,164.891,192.518,169.204z M207.525,134.805c-1.59,1.869-3.895,3.036-6.463,2.756
	c-0.711-0.078-1.334-0.388-1.963-0.65c-20.863-12.454-44.447-20.745-69.902-23.531c-25.266-2.76-49.824,0.174-72.577,7.713
	c-0.815,0.205-1.653,0.366-2.534,0.269c-2.616-0.286-4.667-1.981-5.836-4.219l-0.989-4.684c0.261-2.345,1.519-4.265,3.241-5.537
	c25.096-8.571,52.272-11.978,80.25-8.918c27.969,3.058,53.854,12.248,76.686,26.076c1.463,1.598,2.277,3.804,2.082,6.155
	L207.525,134.805z M45.383,60.087c28.431-8.471,58.819-11.619,90.023-8.203c30.921,3.383,59.769,12.877,85.693,27.095
	c3.467,2.342,5.646,6.445,5.187,11.016c-0.654,6.479-6.234,11.171-12.448,10.493c-0.87-0.097-1.67-0.387-2.457-0.677
	c-23.66-13.065-50.035-21.783-78.299-24.875c-28.286-3.097-55.847-0.274-81.609,7.411c-0.814,0.097-1.63,0.201-2.481,0.106
	c-6.213-0.681-10.732-6.479-10.078-12.955C39.344,65.234,41.918,61.779,45.383,60.087z"/>
<g>
	<path fill="#FFFFFF" d="M103.301,179.477c-36.948,0-69.762,16.982-90.441,43.264c5.119,13.307,18.014,22.753,33.124,22.753h12.051
		c10.873-15.079,27.616-24.753,46.417-24.753c18.776,0,35.509,9.674,46.377,24.753h56.67
		C190.197,206.671,150.061,179.477,103.301,179.477z"/>
</g>
<g>
	
		<linearGradient id="SVGID_2_" gradientUnits="userSpaceOnUse" x1="94.9995" y1="1308.001" x2="94.9995" y2="1415.5118" gradientTransform="matrix(1 0 0 1 34 -1170)">
		<stop  offset="0" style="stop-color:#000000;stop-opacity:0.15"/>
		<stop  offset="0.6626" style="stop-color:#000000;stop-opacity:0"/>
	</linearGradient>
	<path fill="url(#SVGID_2_)" d="M10.496,115.401v94.605c0,19.6,15.888,35.486,35.487,35.486h164.033
		c19.604,0,35.488-15.889,37.488-34.819v-95.952c-36.779,15.181-77.074,23.576-119.337,23.576
		C86.542,138.298,46.825,130.152,10.496,115.401z"/>
</g>
<path fill="none" stroke="#7BC10F" stroke-width="2" stroke-miterlimit="10" d="M247.503,114.721V46.66
	c-1.999-20.266-17.888-36.155-37.485-36.155H45.982c-19.599,0-35.486,15.889-35.486,35.487v69.409"/>
<g>
	<g>
		<g>
			<path fill="none" stroke="#62990C" stroke-width="2" stroke-miterlimit="10" d="M10.496,115.401v94.605
				c0,19.6,15.888,35.486,35.486,35.486h164.034c19.604,0,35.487-15.889,37.487-34.819v-95.952"/>
		</g>
	</g>
</g>
</svg>
