<?xml version="1.0" encoding="utf-8"?>
<!-- Generator: Adobe Illustrator 15.0.0, SVG Export Plug-In . SVG Version: 6.00 Build 0)  -->
<!DOCTYPE svg PUBLIC "-//W3C//DTD SVG 1.1//EN" "http://www.w3.org/Graphics/SVG/1.1/DTD/svg11.dtd">
<svg version="1.1"
	 id="svg2" sodipodi:version="0.32" inkscape:version="0.47 r22583" inkscape:output_extension="org.inkscape.output.svg.inkscape" xmlns:inkscape="http://www.inkscape.org/namespaces/inkscape" xmlns:sodipodi="http://sodipodi.sourceforge.net/DTD/sodipodi-0.dtd" xmlns:svg="http://www.w3.org/2000/svg" xmlns:rdf="http://www.w3.org/1999/02/22-rdf-syntax-ns#" xmlns:cc="http://creativecommons.org/ns#" xmlns:dc="http://purl.org/dc/elements/1.1/" sodipodi:docname="youtube.svg"
	 xmlns="http://www.w3.org/2000/svg" xmlns:xlink="http://www.w3.org/1999/xlink" x="0px" y="0px" width="256px" height="256px"
	 viewBox="0 0 256 256" enable-background="new 0 0 256 256" xml:space="preserve">
<path id="rect1942" inkscape:export-xdpi="7.7063322" inkscape:export-ydpi="7.7063322" inkscape:export-filename="C:\Documents and Settings\Molumen\Desktop\path3511111.png" fill="#231F20" d="
	M210.018,10.505H45.983c-19.599,0-35.487,15.888-35.487,35.487v164.015c0,19.599,15.888,35.486,35.487,35.486h164.033
	c19.604,0,35.487-15.888,37.487-34.819V46.66C245.504,26.394,229.615,10.505,210.018,10.505z"/>
<linearGradient id="SVGID_1_" gradientUnits="userSpaceOnUse" x1="94.9995" y1="1181.167" x2="94.9995" y2="1308.795" gradientTransform="matrix(1 0 0 1 34 -1170)">
	<stop  offset="0" style="stop-color:#FFFFFF;stop-opacity:0.85"/>
	<stop  offset="0.66" style="stop-color:#FFFFFF;stop-opacity:0"/>
</linearGradient>
<path fill="url(#SVGID_1_)" d="M210.018,10.505H45.983c-19.599,0-35.487,15.889-35.487,35.487v69.409
	c36.33,14.751,76.046,22.896,117.671,22.896c42.263,0,82.558-8.395,119.336-23.576V46.66
	C245.504,26.394,229.615,10.505,210.018,10.505z"/>
<path id="Layer_x0020_1" fill="#FFFFFF" d="M128,43.239c22.113,0,42.246,8.474,57.337,22.346
	c-7.396-0.195-14.772,4.199-15.082,14.269c-0.621,20.357,24.341,24.69,10.89,65.632l-11.127,33.867l-30.302-89.261
	c-0.471-1.382,0.076-2.167,1.775-2.167h8.565c0.445,0,0.808-0.38,0.808-0.845v-5.074c0-0.466-0.361-0.864-0.808-0.846
	c-16.225,0.709-32.351,0.714-48.381,0c-0.443-0.02-0.809,0.381-0.809,0.846v5.074c0,0.464,0.363,0.845,0.809,0.845h8.613
	c1.917,0,2.454,0.639,2.905,1.874l12.453,34.052l-18.731,56.553L76.134,89.723c-0.385-1.135,0.078-1.798,1.175-1.798h9.814
	c0.446,0,0.81-0.379,0.81-0.845v-5.074c0-0.465-0.366-0.869-0.81-0.846c-10.297,0.547-20.635,0.657-30.264,0.756
	C71.97,58.64,98.189,43.239,128,43.239L128,43.239z M202.555,87.64c6.512,12.001,10.211,25.75,10.211,40.359
	c0,32.065-17.815,59.974-44.084,74.375l26.441-74.875C199.215,115.91,203.018,100.25,202.555,87.64L202.555,87.64z M156.383,207.887
	c-8.875,3.156-18.428,4.879-28.383,4.879c-8.572,0-16.847-1.279-24.647-3.647l26.111-74.834L156.383,207.887L156.383,207.887z
	 M91.733,204.625C63.068,191.031,43.239,161.828,43.239,128c0-12.538,2.728-24.44,7.616-35.151L91.733,204.625L91.733,204.625z
	 M128,35.286c-51.194,0-92.714,41.52-92.714,92.715c0,51.197,41.52,92.716,92.714,92.716c51.198,0,92.717-41.52,92.717-92.716
	C220.717,76.805,179.197,35.286,128,35.286L128,35.286z M128,29.426c54.434,0,98.577,44.143,98.577,98.574
	c0,54.434-44.144,98.576-98.577,98.576c-54.431,0-98.573-44.143-98.573-98.576C29.426,73.569,73.569,29.426,128,29.426L128,29.426z"
	/>
<g>
	
		<linearGradient id="SVGID_2_" gradientUnits="userSpaceOnUse" x1="94.9995" y1="1308.001" x2="94.9995" y2="1415.5118" gradientTransform="matrix(1 0 0 1 34 -1170)">
		<stop  offset="0" style="stop-color:#000000;stop-opacity:0.15"/>
		<stop  offset="0.6626" style="stop-color:#000000;stop-opacity:0"/>
	</linearGradient>
	<path fill="url(#SVGID_2_)" d="M10.496,115.401v94.605c0,19.6,15.888,35.486,35.487,35.486h164.033
		c19.604,0,35.488-15.889,37.488-34.819v-95.952c-36.779,15.181-77.074,23.576-119.337,23.576
		C86.542,138.298,46.825,130.152,10.496,115.401z"/>
</g>
<path fill="none" stroke="#000000" stroke-width="2" stroke-miterlimit="10" d="M247.503,114.721V46.66
	c-1.999-20.266-17.888-36.155-37.485-36.155H45.982c-19.599,0-35.486,15.889-35.486,35.487v69.409"/>
<g>
	<g>
		<path fill="none" stroke="#000000" stroke-width="2" stroke-miterlimit="10" d="M10.496,115.401v94.605
			c0,19.6,15.888,35.486,35.486,35.486h164.034c19.604,0,35.487-15.889,37.487-34.819v-95.952"/>
	</g>
</g>
</svg>
